<?xml version="1.0" encoding="UTF-8" standalone="no"?>
<!DOCTYPE svg PUBLIC "-//W3C//DTD SVG 1.1//EN"
 "http://www.w3.org/Graphics/SVG/1.1/DTD/svg11.dtd">
<!-- Generated by graphviz version 7.0.1 (0)
 -->
<!-- Pages: 1 -->
<svg width="1253pt" height="710pt"
 viewBox="0.00 0.00 1252.50 710.00" xmlns="http://www.w3.org/2000/svg" xmlns:xlink="http://www.w3.org/1999/xlink">
<g id="graph0" class="graph" transform="scale(1 1) rotate(0) translate(4 706)">
<polygon fill="white" stroke="none" points="-4,4 -4,-706 1248.5,-706 1248.5,4 -4,4"/>
<text text-anchor="middle" x="622.25" y="-7.8" font-family="Times,serif" font-size="14.00">Ensemble weight: 0.4</text>
<!-- 0 -->
<g id="node1" class="node">
<title>0</title>
<path fill="#ffffff" stroke="black" d="M623,-702C623,-702 384,-702 384,-702 378,-702 372,-696 372,-690 372,-690 372,-631 372,-631 372,-625 378,-619 384,-619 384,-619 623,-619 623,-619 629,-619 635,-625 635,-631 635,-631 635,-690 635,-690 635,-696 629,-702 623,-702"/>
<text text-anchor="start" x="380" y="-686.8" font-family="Helvetica,sans-Serif" font-size="14.00">Harmony_Numerals_vi_Per ≤ 0.003</text>
<text text-anchor="start" x="455" y="-671.8" font-family="Helvetica,sans-Serif" font-size="14.00">entropy = 1.0</text>
<text text-anchor="start" x="450.5" y="-656.8" font-family="Helvetica,sans-Serif" font-size="14.00">samples = 224</text>
<text text-anchor="start" x="423.5" y="-641.8" font-family="Helvetica,sans-Serif" font-size="14.00">value = [112.0, 112.0]</text>
<text text-anchor="start" x="456.5" y="-626.8" font-family="Helvetica,sans-Serif" font-size="14.00">class = Perez</text>
</g>
<!-- 1 -->
<g id="node2" class="node">
<title>1</title>
<path fill="#5baeea" stroke="black" d="M459,-583C459,-583 256,-583 256,-583 250,-583 244,-577 244,-571 244,-571 244,-512 244,-512 244,-506 250,-500 256,-500 256,-500 459,-500 459,-500 465,-500 471,-506 471,-512 471,-512 471,-571 471,-571 471,-577 465,-583 459,-583"/>
<text text-anchor="start" x="252" y="-567.8" font-family="Helvetica,sans-Serif" font-size="14.00">Score_IntervalM3_Per ≤ 0.021</text>
<text text-anchor="start" x="300" y="-552.8" font-family="Helvetica,sans-Serif" font-size="14.00">entropy = 0.605</text>
<text text-anchor="start" x="309" y="-537.8" font-family="Helvetica,sans-Serif" font-size="14.00">samples = 99</text>
<text text-anchor="start" x="268.5" y="-522.8" font-family="Helvetica,sans-Serif" font-size="14.00">value = [14.385, 82.783]</text>
<text text-anchor="start" x="310.5" y="-507.8" font-family="Helvetica,sans-Serif" font-size="14.00">class = Perez</text>
</g>
<!-- 0&#45;&gt;1 -->
<g id="edge1" class="edge">
<title>0&#45;&gt;1</title>
<path fill="none" stroke="black" d="M452.44,-618.58C441.03,-609.44 428.85,-599.67 417.13,-590.29"/>
<polygon fill="black" stroke="black" points="419.46,-587.67 409.47,-584.15 415.08,-593.13 419.46,-587.67"/>
<text text-anchor="middle" x="411.03" y="-604.35" font-family="Helvetica,sans-Serif" font-size="14.00">True</text>
</g>
<!-- 6 -->
<g id="node7" class="node">
<title>6</title>
<path fill="#eda774" stroke="black" d="M835.5,-583C835.5,-583 539.5,-583 539.5,-583 533.5,-583 527.5,-577 527.5,-571 527.5,-571 527.5,-512 527.5,-512 527.5,-506 533.5,-500 539.5,-500 539.5,-500 835.5,-500 835.5,-500 841.5,-500 847.5,-506 847.5,-512 847.5,-512 847.5,-571 847.5,-571 847.5,-577 841.5,-583 835.5,-583"/>
<text text-anchor="start" x="535.5" y="-567.8" font-family="Helvetica,sans-Serif" font-size="14.00">Harmony_Chords_Grouping_2T_Per ≤ 0.051</text>
<text text-anchor="start" x="630" y="-552.8" font-family="Helvetica,sans-Serif" font-size="14.00">entropy = 0.779</text>
<text text-anchor="start" x="634.5" y="-537.8" font-family="Helvetica,sans-Serif" font-size="14.00">samples = 125</text>
<text text-anchor="start" x="598.5" y="-522.8" font-family="Helvetica,sans-Serif" font-size="14.00">value = [97.615, 29.217]</text>
<text text-anchor="start" x="633" y="-507.8" font-family="Helvetica,sans-Serif" font-size="14.00">class = Galuppi</text>
</g>
<!-- 0&#45;&gt;6 -->
<g id="edge6" class="edge">
<title>0&#45;&gt;6</title>
<path fill="none" stroke="black" d="M567.85,-618.58C582.7,-609.14 598.61,-599.02 613.82,-589.35"/>
<polygon fill="black" stroke="black" points="615.34,-592.53 621.9,-584.21 611.59,-586.62 615.34,-592.53"/>
<text text-anchor="middle" x="617.75" y="-604.1" font-family="Helvetica,sans-Serif" font-size="14.00">False</text>
</g>
<!-- 2 -->
<g id="node3" class="node">
<title>2</title>
<path fill="#ea995f" stroke="black" d="M173,-456.5C173,-456.5 12,-456.5 12,-456.5 6,-456.5 0,-450.5 0,-444.5 0,-444.5 0,-400.5 0,-400.5 0,-394.5 6,-388.5 12,-388.5 12,-388.5 173,-388.5 173,-388.5 179,-388.5 185,-394.5 185,-400.5 185,-400.5 185,-444.5 185,-444.5 185,-450.5 179,-456.5 173,-456.5"/>
<text text-anchor="start" x="35" y="-441.3" font-family="Helvetica,sans-Serif" font-size="14.00">entropy = 0.633</text>
<text text-anchor="start" x="44" y="-426.3" font-family="Helvetica,sans-Serif" font-size="14.00">samples = 12</text>
<text text-anchor="start" x="8" y="-411.3" font-family="Helvetica,sans-Serif" font-size="14.00">value = [10.275, 1.948]</text>
<text text-anchor="start" x="38" y="-396.3" font-family="Helvetica,sans-Serif" font-size="14.00">class = Galuppi</text>
</g>
<!-- 1&#45;&gt;2 -->
<g id="edge2" class="edge">
<title>1&#45;&gt;2</title>
<path fill="none" stroke="black" d="M264.82,-499.58C236.76,-487.19 206.07,-473.64 178.48,-461.46"/>
<polygon fill="black" stroke="black" points="180.01,-458.31 169.45,-457.47 177.18,-464.71 180.01,-458.31"/>
</g>
<!-- 3 -->
<g id="node4" class="node">
<title>3</title>
<path fill="#43a2e6" stroke="black" d="M499.5,-464C499.5,-464 215.5,-464 215.5,-464 209.5,-464 203.5,-458 203.5,-452 203.5,-452 203.5,-393 203.5,-393 203.5,-387 209.5,-381 215.5,-381 215.5,-381 499.5,-381 499.5,-381 505.5,-381 511.5,-387 511.5,-393 511.5,-393 511.5,-452 511.5,-452 511.5,-458 505.5,-464 499.5,-464"/>
<text text-anchor="start" x="211.5" y="-448.8" font-family="Helvetica,sans-Serif" font-size="14.00">PartBs_AscendingIntervallicMean ≤ 0.068</text>
<text text-anchor="start" x="300" y="-433.8" font-family="Helvetica,sans-Serif" font-size="14.00">entropy = 0.279</text>
<text text-anchor="start" x="309" y="-418.8" font-family="Helvetica,sans-Serif" font-size="14.00">samples = 87</text>
<text text-anchor="start" x="277.5" y="-403.8" font-family="Helvetica,sans-Serif" font-size="14.00">value = [4.11, 80.835]</text>
<text text-anchor="start" x="310.5" y="-388.8" font-family="Helvetica,sans-Serif" font-size="14.00">class = Perez</text>
</g>
<!-- 1&#45;&gt;3 -->
<g id="edge3" class="edge">
<title>1&#45;&gt;3</title>
<path fill="none" stroke="black" d="M357.5,-499.58C357.5,-491.79 357.5,-483.53 357.5,-475.45"/>
<polygon fill="black" stroke="black" points="361,-475.71 357.5,-465.71 354,-475.71 361,-475.71"/>
</g>
<!-- 4 -->
<g id="node5" class="node">
<title>4</title>
<path fill="#399de5" stroke="black" d="M244,-337.5C244,-337.5 101,-337.5 101,-337.5 95,-337.5 89,-331.5 89,-325.5 89,-325.5 89,-281.5 89,-281.5 89,-275.5 95,-269.5 101,-269.5 101,-269.5 244,-269.5 244,-269.5 250,-269.5 256,-275.5 256,-281.5 256,-281.5 256,-325.5 256,-325.5 256,-331.5 250,-337.5 244,-337.5"/>
<text text-anchor="start" x="124" y="-322.3" font-family="Helvetica,sans-Serif" font-size="14.00">entropy = 0.0</text>
<text text-anchor="start" x="124" y="-307.3" font-family="Helvetica,sans-Serif" font-size="14.00">samples = 77</text>
<text text-anchor="start" x="97" y="-292.3" font-family="Helvetica,sans-Serif" font-size="14.00">value = [0.0, 74.991]</text>
<text text-anchor="start" x="125.5" y="-277.3" font-family="Helvetica,sans-Serif" font-size="14.00">class = Perez</text>
</g>
<!-- 3&#45;&gt;4 -->
<g id="edge4" class="edge">
<title>3&#45;&gt;4</title>
<path fill="none" stroke="black" d="M292.8,-380.58C273.99,-368.68 253.48,-355.72 234.82,-343.91"/>
<polygon fill="black" stroke="black" points="236.85,-341.06 226.53,-338.67 233.11,-346.97 236.85,-341.06"/>
</g>
<!-- 5 -->
<g id="node6" class="node">
<title>5</title>
<path fill="#c4e2f7" stroke="black" d="M429,-337.5C429,-337.5 286,-337.5 286,-337.5 280,-337.5 274,-331.5 274,-325.5 274,-325.5 274,-281.5 274,-281.5 274,-275.5 280,-269.5 286,-269.5 286,-269.5 429,-269.5 429,-269.5 435,-269.5 441,-275.5 441,-281.5 441,-281.5 441,-325.5 441,-325.5 441,-331.5 435,-337.5 429,-337.5"/>
<text text-anchor="start" x="300" y="-322.3" font-family="Helvetica,sans-Serif" font-size="14.00">entropy = 0.978</text>
<text text-anchor="start" x="309" y="-307.3" font-family="Helvetica,sans-Serif" font-size="14.00">samples = 10</text>
<text text-anchor="start" x="282" y="-292.3" font-family="Helvetica,sans-Serif" font-size="14.00">value = [4.11, 5.843]</text>
<text text-anchor="start" x="310.5" y="-277.3" font-family="Helvetica,sans-Serif" font-size="14.00">class = Perez</text>
</g>
<!-- 3&#45;&gt;5 -->
<g id="edge5" class="edge">
<title>3&#45;&gt;5</title>
<path fill="none" stroke="black" d="M357.5,-380.58C357.5,-370.43 357.5,-359.5 357.5,-349.18"/>
<polygon fill="black" stroke="black" points="361,-349.37 357.5,-339.37 354,-349.37 361,-349.37"/>
</g>
<!-- 7 -->
<g id="node8" class="node">
<title>7</title>
<path fill="#e88f4f" stroke="black" d="M795.5,-464C795.5,-464 579.5,-464 579.5,-464 573.5,-464 567.5,-458 567.5,-452 567.5,-452 567.5,-393 567.5,-393 567.5,-387 573.5,-381 579.5,-381 579.5,-381 795.5,-381 795.5,-381 801.5,-381 807.5,-387 807.5,-393 807.5,-393 807.5,-452 807.5,-452 807.5,-458 801.5,-464 795.5,-464"/>
<text text-anchor="start" x="575.5" y="-448.8" font-family="Helvetica,sans-Serif" font-size="14.00">PartVnI_Intervalm3_Per ≤ 0.053</text>
<text text-anchor="start" x="630" y="-433.8" font-family="Helvetica,sans-Serif" font-size="14.00">entropy = 0.463</text>
<text text-anchor="start" x="639" y="-418.8" font-family="Helvetica,sans-Serif" font-size="14.00">samples = 97</text>
<text text-anchor="start" x="603" y="-403.8" font-family="Helvetica,sans-Serif" font-size="14.00">value = [89.394, 9.739]</text>
<text text-anchor="start" x="633" y="-388.8" font-family="Helvetica,sans-Serif" font-size="14.00">class = Galuppi</text>
</g>
<!-- 6&#45;&gt;7 -->
<g id="edge7" class="edge">
<title>6&#45;&gt;7</title>
<path fill="none" stroke="black" d="M687.5,-499.58C687.5,-491.79 687.5,-483.53 687.5,-475.45"/>
<polygon fill="black" stroke="black" points="691,-475.71 687.5,-465.71 684,-475.71 691,-475.71"/>
</g>
<!-- 14 -->
<g id="node15" class="node">
<title>14</title>
<path fill="#8dc6f0" stroke="black" d="M1092,-464C1092,-464 877,-464 877,-464 871,-464 865,-458 865,-452 865,-452 865,-393 865,-393 865,-387 871,-381 877,-381 877,-381 1092,-381 1092,-381 1098,-381 1104,-387 1104,-393 1104,-393 1104,-452 1104,-452 1104,-458 1098,-464 1092,-464"/>
<text text-anchor="start" x="873" y="-448.8" font-family="Helvetica,sans-Serif" font-size="14.00">PartVnI_IntervalM3_Per ≤ 0.049</text>
<text text-anchor="start" x="927" y="-433.8" font-family="Helvetica,sans-Serif" font-size="14.00">entropy = 0.877</text>
<text text-anchor="start" x="936" y="-418.8" font-family="Helvetica,sans-Serif" font-size="14.00">samples = 28</text>
<text text-anchor="start" x="904.5" y="-403.8" font-family="Helvetica,sans-Serif" font-size="14.00">value = [8.22, 19.478]</text>
<text text-anchor="start" x="937.5" y="-388.8" font-family="Helvetica,sans-Serif" font-size="14.00">class = Perez</text>
</g>
<!-- 6&#45;&gt;14 -->
<g id="edge14" class="edge">
<title>6&#45;&gt;14</title>
<path fill="none" stroke="black" d="M791.38,-499.58C816.74,-489.59 844.01,-478.84 869.85,-468.67"/>
<polygon fill="black" stroke="black" points="871,-471.97 879.02,-465.05 868.44,-465.46 871,-471.97"/>
</g>
<!-- 8 -->
<g id="node9" class="node">
<title>8</title>
<path fill="#e58139" stroke="black" d="M614,-337.5C614,-337.5 471,-337.5 471,-337.5 465,-337.5 459,-331.5 459,-325.5 459,-325.5 459,-281.5 459,-281.5 459,-275.5 465,-269.5 471,-269.5 471,-269.5 614,-269.5 614,-269.5 620,-269.5 626,-275.5 626,-281.5 626,-281.5 626,-325.5 626,-325.5 626,-331.5 620,-337.5 614,-337.5"/>
<text text-anchor="start" x="491" y="-322.3" font-family="Helvetica,sans-Serif" font-size="14.00">entropy = &#45;0.0</text>
<text text-anchor="start" x="494" y="-307.3" font-family="Helvetica,sans-Serif" font-size="14.00">samples = 65</text>
<text text-anchor="start" x="467" y="-292.3" font-family="Helvetica,sans-Serif" font-size="14.00">value = [66.789, 0.0]</text>
<text text-anchor="start" x="488" y="-277.3" font-family="Helvetica,sans-Serif" font-size="14.00">class = Galuppi</text>
</g>
<!-- 7&#45;&gt;8 -->
<g id="edge8" class="edge">
<title>7&#45;&gt;8</title>
<path fill="none" stroke="black" d="M636.79,-380.58C622.45,-369.01 606.86,-356.43 592.56,-344.89"/>
<polygon fill="black" stroke="black" points="595,-342.37 585.02,-338.81 590.61,-347.82 595,-342.37"/>
</g>
<!-- 9 -->
<g id="node10" class="node">
<title>9</title>
<path fill="#f0b78e" stroke="black" d="M870.5,-345C870.5,-345 656.5,-345 656.5,-345 650.5,-345 644.5,-339 644.5,-333 644.5,-333 644.5,-274 644.5,-274 644.5,-268 650.5,-262 656.5,-262 656.5,-262 870.5,-262 870.5,-262 876.5,-262 882.5,-268 882.5,-274 882.5,-274 882.5,-333 882.5,-333 882.5,-339 876.5,-345 870.5,-345"/>
<text text-anchor="start" x="652.5" y="-329.8" font-family="Helvetica,sans-Serif" font-size="14.00">PartBs_IntervalM&#45;2_Per ≤ 0.014</text>
<text text-anchor="start" x="706" y="-314.8" font-family="Helvetica,sans-Serif" font-size="14.00">entropy = 0.883</text>
<text text-anchor="start" x="715" y="-299.8" font-family="Helvetica,sans-Serif" font-size="14.00">samples = 32</text>
<text text-anchor="start" x="679" y="-284.8" font-family="Helvetica,sans-Serif" font-size="14.00">value = [22.606, 9.739]</text>
<text text-anchor="start" x="709" y="-269.8" font-family="Helvetica,sans-Serif" font-size="14.00">class = Galuppi</text>
</g>
<!-- 7&#45;&gt;9 -->
<g id="edge9" class="edge">
<title>7&#45;&gt;9</title>
<path fill="none" stroke="black" d="M714.08,-380.58C719.49,-372.25 725.24,-363.39 730.84,-354.78"/>
<polygon fill="black" stroke="black" points="733.73,-356.76 736.24,-346.47 727.86,-352.95 733.73,-356.76"/>
</g>
<!-- 10 -->
<g id="node11" class="node">
<title>10</title>
<path fill="#399de5" stroke="black" d="M710.5,-218.5C710.5,-218.5 576.5,-218.5 576.5,-218.5 570.5,-218.5 564.5,-212.5 564.5,-206.5 564.5,-206.5 564.5,-162.5 564.5,-162.5 564.5,-156.5 570.5,-150.5 576.5,-150.5 576.5,-150.5 710.5,-150.5 710.5,-150.5 716.5,-150.5 722.5,-156.5 722.5,-162.5 722.5,-162.5 722.5,-206.5 722.5,-206.5 722.5,-212.5 716.5,-218.5 710.5,-218.5"/>
<text text-anchor="start" x="595" y="-203.3" font-family="Helvetica,sans-Serif" font-size="14.00">entropy = 0.0</text>
<text text-anchor="start" x="599.5" y="-188.3" font-family="Helvetica,sans-Serif" font-size="14.00">samples = 7</text>
<text text-anchor="start" x="572.5" y="-173.3" font-family="Helvetica,sans-Serif" font-size="14.00">value = [0.0, 6.817]</text>
<text text-anchor="start" x="596.5" y="-158.3" font-family="Helvetica,sans-Serif" font-size="14.00">class = Perez</text>
</g>
<!-- 9&#45;&gt;10 -->
<g id="edge10" class="edge">
<title>9&#45;&gt;10</title>
<path fill="none" stroke="black" d="M721.53,-261.58C710,-250.34 697.49,-238.14 685.93,-226.87"/>
<polygon fill="black" stroke="black" points="688.4,-224.39 678.8,-219.92 683.52,-229.4 688.4,-224.39"/>
</g>
<!-- 11 -->
<g id="node12" class="node">
<title>11</title>
<path fill="#e89153" stroke="black" d="M1016,-226C1016,-226 753,-226 753,-226 747,-226 741,-220 741,-214 741,-214 741,-155 741,-155 741,-149 747,-143 753,-143 753,-143 1016,-143 1016,-143 1022,-143 1028,-149 1028,-155 1028,-155 1028,-214 1028,-214 1028,-220 1022,-226 1016,-226"/>
<text text-anchor="start" x="749" y="-210.8" font-family="Helvetica,sans-Serif" font-size="14.00">Score_AscendingIntervallicStd ≤ 0.018</text>
<text text-anchor="start" x="827" y="-195.8" font-family="Helvetica,sans-Serif" font-size="14.00">entropy = 0.513</text>
<text text-anchor="start" x="836" y="-180.8" font-family="Helvetica,sans-Serif" font-size="14.00">samples = 25</text>
<text text-anchor="start" x="800" y="-165.8" font-family="Helvetica,sans-Serif" font-size="14.00">value = [22.606, 2.922]</text>
<text text-anchor="start" x="830" y="-150.8" font-family="Helvetica,sans-Serif" font-size="14.00">class = Galuppi</text>
</g>
<!-- 9&#45;&gt;11 -->
<g id="edge11" class="edge">
<title>9&#45;&gt;11</title>
<path fill="none" stroke="black" d="M805.82,-261.58C814.99,-252.71 824.78,-243.25 834.22,-234.12"/>
<polygon fill="black" stroke="black" points="836.56,-236.72 841.32,-227.25 831.7,-231.69 836.56,-236.72"/>
</g>
<!-- 12 -->
<g id="node13" class="node">
<title>12</title>
<path fill="#399de5" stroke="black" d="M861.5,-107C861.5,-107 727.5,-107 727.5,-107 721.5,-107 715.5,-101 715.5,-95 715.5,-95 715.5,-51 715.5,-51 715.5,-45 721.5,-39 727.5,-39 727.5,-39 861.5,-39 861.5,-39 867.5,-39 873.5,-45 873.5,-51 873.5,-51 873.5,-95 873.5,-95 873.5,-101 867.5,-107 861.5,-107"/>
<text text-anchor="start" x="746" y="-91.8" font-family="Helvetica,sans-Serif" font-size="14.00">entropy = 0.0</text>
<text text-anchor="start" x="750.5" y="-76.8" font-family="Helvetica,sans-Serif" font-size="14.00">samples = 3</text>
<text text-anchor="start" x="723.5" y="-61.8" font-family="Helvetica,sans-Serif" font-size="14.00">value = [0.0, 2.922]</text>
<text text-anchor="start" x="747.5" y="-46.8" font-family="Helvetica,sans-Serif" font-size="14.00">class = Perez</text>
</g>
<!-- 11&#45;&gt;12 -->
<g id="edge12" class="edge">
<title>11&#45;&gt;12</title>
<path fill="none" stroke="black" d="M850.99,-142.73C843.87,-134.06 836.33,-124.9 829.17,-116.18"/>
<polygon fill="black" stroke="black" points="831.88,-113.97 822.83,-108.47 826.48,-118.42 831.88,-113.97"/>
</g>
<!-- 13 -->
<g id="node14" class="node">
<title>13</title>
<path fill="#e58139" stroke="black" d="M1047,-107C1047,-107 904,-107 904,-107 898,-107 892,-101 892,-95 892,-95 892,-51 892,-51 892,-45 898,-39 904,-39 904,-39 1047,-39 1047,-39 1053,-39 1059,-45 1059,-51 1059,-51 1059,-95 1059,-95 1059,-101 1053,-107 1047,-107"/>
<text text-anchor="start" x="927" y="-91.8" font-family="Helvetica,sans-Serif" font-size="14.00">entropy = 0.0</text>
<text text-anchor="start" x="927" y="-76.8" font-family="Helvetica,sans-Serif" font-size="14.00">samples = 22</text>
<text text-anchor="start" x="900" y="-61.8" font-family="Helvetica,sans-Serif" font-size="14.00">value = [22.606, 0.0]</text>
<text text-anchor="start" x="921" y="-46.8" font-family="Helvetica,sans-Serif" font-size="14.00">class = Galuppi</text>
</g>
<!-- 11&#45;&gt;13 -->
<g id="edge13" class="edge">
<title>11&#45;&gt;13</title>
<path fill="none" stroke="black" d="M918.39,-142.73C925.66,-133.97 933.36,-124.7 940.67,-115.91"/>
<polygon fill="black" stroke="black" points="943.16,-118.39 946.86,-108.46 937.78,-113.92 943.16,-118.39"/>
</g>
<!-- 15 -->
<g id="node16" class="node">
<title>15</title>
<path fill="#eb9f68" stroke="black" d="M1056,-337.5C1056,-337.5 913,-337.5 913,-337.5 907,-337.5 901,-331.5 901,-325.5 901,-325.5 901,-281.5 901,-281.5 901,-275.5 907,-269.5 913,-269.5 913,-269.5 1056,-269.5 1056,-269.5 1062,-269.5 1068,-275.5 1068,-281.5 1068,-281.5 1068,-325.5 1068,-325.5 1068,-331.5 1062,-337.5 1056,-337.5"/>
<text text-anchor="start" x="927" y="-322.3" font-family="Helvetica,sans-Serif" font-size="14.00">entropy = 0.705</text>
<text text-anchor="start" x="936" y="-307.3" font-family="Helvetica,sans-Serif" font-size="14.00">samples = 10</text>
<text text-anchor="start" x="909" y="-292.3" font-family="Helvetica,sans-Serif" font-size="14.00">value = [8.22, 1.948]</text>
<text text-anchor="start" x="930" y="-277.3" font-family="Helvetica,sans-Serif" font-size="14.00">class = Galuppi</text>
</g>
<!-- 14&#45;&gt;15 -->
<g id="edge15" class="edge">
<title>14&#45;&gt;15</title>
<path fill="none" stroke="black" d="M984.5,-380.58C984.5,-370.43 984.5,-359.5 984.5,-349.18"/>
<polygon fill="black" stroke="black" points="988,-349.37 984.5,-339.37 981,-349.37 988,-349.37"/>
</g>
<!-- 16 -->
<g id="node17" class="node">
<title>16</title>
<path fill="#399de5" stroke="black" d="M1232.5,-337.5C1232.5,-337.5 1098.5,-337.5 1098.5,-337.5 1092.5,-337.5 1086.5,-331.5 1086.5,-325.5 1086.5,-325.5 1086.5,-281.5 1086.5,-281.5 1086.5,-275.5 1092.5,-269.5 1098.5,-269.5 1098.5,-269.5 1232.5,-269.5 1232.5,-269.5 1238.5,-269.5 1244.5,-275.5 1244.5,-281.5 1244.5,-281.5 1244.5,-325.5 1244.5,-325.5 1244.5,-331.5 1238.5,-337.5 1232.5,-337.5"/>
<text text-anchor="start" x="1117" y="-322.3" font-family="Helvetica,sans-Serif" font-size="14.00">entropy = 0.0</text>
<text text-anchor="start" x="1117" y="-307.3" font-family="Helvetica,sans-Serif" font-size="14.00">samples = 18</text>
<text text-anchor="start" x="1094.5" y="-292.3" font-family="Helvetica,sans-Serif" font-size="14.00">value = [0.0, 17.53]</text>
<text text-anchor="start" x="1118.5" y="-277.3" font-family="Helvetica,sans-Serif" font-size="14.00">class = Perez</text>
</g>
<!-- 14&#45;&gt;16 -->
<g id="edge16" class="edge">
<title>14&#45;&gt;16</title>
<path fill="none" stroke="black" d="M1047.81,-380.58C1066.12,-368.74 1086.08,-355.84 1104.27,-344.08"/>
<polygon fill="black" stroke="black" points="1106.12,-347.05 1112.62,-338.68 1102.32,-341.17 1106.12,-347.05"/>
</g>
</g>
</svg>
